<svg version="1.1" id="Layer_1" xmlns="http://www.w3.org/2000/svg" xmlns:xlink="http://www.w3.org/1999/xlink" x="0px" y="0px" viewBox="0 0 289.7 103.2" style="enable-background:new 0 0 289.7 103.2;" xml:space="preserve">
    <style type="text/css">
        .st0 {
            fill: #FFFFFF;
        }

        .st1 {
            fill: url(#SVGID_1_);
        }

        .st2 {
            fill: url(#SVGID_2_);
        }

        .st3 {
            fill: url(#SVGID_3_);
        }

        .st4 {
            fill: url(#SVGID_4_);
        }

        .st5 {
            fill: url(#SVGID_5_);
        }

        .st6 {
            fill: url(#SVGID_6_);
        }

        svg {
            max-width: 200px;
            margin: 0 auto;
            background: #211f1f08;
        }

        @keyframes move {

            33.3333% {

                opacity: .3;
                transform: translate(0px, -9px);
            }

            56.6666% {

                transform: translate(0px, 6px);
            }

            90% {

                transform: translate(0px, 0px);
            }

            100% {

                transform: translate(0px, 0px);
            }
        }

        .feat path:nth-of-type(1) {

            animation: move .9s ease-in-out infinite;
        }

        .feat path:nth-of-type(2) {

            animation: move .9s .1s ease-in-out infinite;
        }

        .feat path:nth-of-type(3) {

            animation: move .9s .2s ease-in-out infinite;
        }

    </style>
    <g class="feat">
        <linearGradient id="SVGID_1_" gradientUnits="userSpaceOnUse" x1="175.7213" y1="60.0437" x2="175.7213" y2="96.0437" gradientTransform="matrix(1 0 0 -1 0 103)">
            <stop offset="4.000000e-02" style="stop-color:#AEA50A" />
            <stop offset="0.5" style="stop-color:#F4F2BF" />
            <stop offset="0.96" style="stop-color:#AEA50A" />
        </linearGradient>
        <path class="st1" d="M172.3,7c0.2-0.1,0.4-0.1,0.7-0.1c0.2,0,0.3,0,0.5,0c0.7,0.3,1.3,0.6,1.9,1c0.1,0.6,0.3,1.2,0.3,1.8         c0,0.2,0,0.4-0.1,0.7c-0.2,0.2-0.6,0.3-0.9,0.5c0,0.3,0.1,0.6,0.1,0.9c0.5-0.1,1.1-0.2,1.6-0.3c0.1-0.3,0.1-0.7,0.3-0.9         c0,0.2,0.1,0.4,0.1,0.7c0.2,0.1,0.4,0.2,0.6,0.3c0.2,0.1,0.4,0,0.6,0.1c2.2,0,4.4,0,6.6,0c0.2,0,0.4,0.2,0.5,0.4c0-0.5,0-1,0-1.4         c0.1,0,0.2,0,0.3,0c0,0.4,0,0.9,0.1,1.3c0.1,0,0.3,0,0.4,0.1c0,0.2,0,0.3,0,0.5c0.5,0,1,0,1.6,0c0.3,0,0.5-0.1,0.8-0.1         c0.4,0,0.7,0,1.1,0c0,0.2,0,0.3,0.1,0.5c-0.5,0-1.1,0.1-1.6,0c-1-0.1-1.9,0.1-2.9,0c0,0.1-0.1,0.2-0.1,0.4c-0.9,0-1.7,0-2.6,0         c-0.2,0-0.4,0-0.6,0.1c-0.2,0.1-0.3,0.3-0.4,0.4c-0.2,0.2-0.5,0.5-0.6,0.7c-0.1,0.6,0.2,1.2,0.3,1.8c-0.2,0.1-0.4,0.1-0.6,0.2         c-0.2,0.5-0.1,1.1-0.4,1.6c-0.1,0.3-0.4,0.4-0.7,0.6c-0.2,0.2-0.4,0.3-0.7,0.5c-0.2,0.1-0.3,0-0.5,0c-0.4-0.1-0.8-0.1-1.1-0.3         c-0.7-0.3-1.3-0.7-2-1c-0.1,0.2-0.1,0.5-0.2,0.7c0.2,0.2,0.5,0.3,0.7,0.6c0.1,0.3,0.1,0.7,0.1,1c-0.1,0.7-0.1,1.5-0.2,2.2         c-0.1,0.5-0.3,0.9-0.6,1.3c-0.3-0.1-0.5-0.1-0.8-0.2c-0.2,0.4-0.1,0.9,0,1.3c0.2,0.4,0.5,0.6,0.7,0.9c0.9,1.1,1.5,2.5,2,3.8         c0.1,0.2,0.1,0.4,0.2,0.6c0.1,0.3,0.4,0.5,0.5,0.7c0.1,0.4,0.3,0.8,0.2,1.2c0,0.7-0.1,1.5-0.2,2.2c-0.1,0.5-0.2,1-0.1,1.5         c0.1,0.3,0.1,0.6,0.1,0.9c0,0.3-0.1,0.5-0.2,0.8c-0.1,0.5-0.1,1-0.1,1.5c0,0.3,0.1,0.7,0.3,0.9c0.3,0.3,0.5,0.6,0.8,0.9         c0.4,0.5,1.2,0.4,1.6,0.9c0.1,0.2,0,0.5,0,0.8c-1,0.1-2,0.2-3,0c-0.4-0.1-0.7-0.2-1.1-0.2c-0.5,0-1,0.1-1.4-0.1         c0-0.7,0.2-1.4,0.4-2.1c0.1-0.5,0-1,0-1.5c0-0.3-0.1-0.6-0.2-0.8c-0.4-1.1-0.5-2.3-0.5-3.4c0-0.2,0.1-0.5,0.2-0.7         c0.3-0.5,0.3-1.2-0.1-1.7c-0.3,0-0.6,0-0.8,0c-0.1,0-0.3-0.1-0.4-0.2c-0.5-0.8-1.1-1.6-1.6-2.4c-0.2-0.3-0.7-0.1-1-0.5         c-0.2-0.2-0.3-0.5-0.4-0.8c-0.1,0.2-0.1,0.5-0.3,0.7c-0.1,0.2-0.3,0.4-0.4,0.5c-0.2,0.3-0.3,0.5-0.4,0.8c-0.2,0.5-0.4,0.9-0.5,1.4         c-0.1,0.2-0.1,0.5-0.2,0.7c-0.1,0.2-0.3,0.3-0.4,0.5c-0.2,0.2-0.3,0.5-0.5,0.7c-0.1,0.2-0.3,0.3-0.4,0.5c-0.1,0.2-0.2,0.4-0.3,0.7         c0,0.3,0.1,0.6,0,0.9c-0.2,0.7-0.5,1.2-0.8,1.9c-0.1,0.4-0.2,0.7-0.4,1.1c-0.2,0.2-0.4,0.3-0.6,0.6c-0.4,0.7-0.6,1.6-0.5,2.5         c0,0.2,0,0.3,0.1,0.5c0.1,0.3,0.2,0.7,0.1,1.1c-0.5,0.1-1,0.1-1.5,0.1c-0.4,0-0.8,0-1.1-0.2c-0.1-0.3-0.1-0.6-0.1-0.9         c0-0.5,0.2-1,0.3-1.4c0.2-0.6,0.3-1.2,0.5-1.8c0.1-0.4-0.2-0.7-0.2-1.1c0-0.6,0.3-1,0.6-1.5c0.2-0.4,0.2-0.9,0.3-1.3         c0.3-0.7,0.7-1.3,1.1-1.9c0.2-0.3,0.4-0.6,0.5-0.9c0.1-0.4,0-0.7,0-1.1c0-0.8,0.2-1.6,0.3-2.5c0-0.2,0.1-0.5,0-0.7         s-0.2-0.5-0.2-0.8c0-0.2,0-0.4,0-0.6s-0.1-0.4,0-0.7c0.1-0.3,0.3-0.5,0.5-0.6c0-1.1-0.4-2.3-0.2-3.4c0.2-0.2,0.5-0.3,0.8-0.5         c-0.4-0.1-0.8-0.2-1.2-0.3c0-0.4,0-0.9,0.1-1.3c0.1-0.6,0.1-1.3,0.2-2c0-0.1,0-0.3,0.1-0.4s0.3-0.1,0.4-0.1c0.3,0,0.6,0,1-0.1         c-0.1-0.5-0.1-1.1-0.1-1.6c0-0.6,0.1-1.1,0.3-1.7c0.2-0.8,0.7-1.6,1.4-2.1c0.3-0.2,0.7-0.4,1.2-0.4c0.3,0,0.7,0.1,0.9,0.3         c0.1,0,0.1-0.1,0.2-0.1c-0.4-1.1-0.3-2.3,0.4-3.2C171.3,7.5,171.8,7.2,172.3,7z M178.4,13.8c0,0.2-0.1,0.5-0.4,0.6         c0.3,0,0.7,0,1-0.1c0-0.2,0-0.4,0-0.6C178.8,13.7,178.6,13.8,178.4,13.8z M177.8,14.5c0,0.1-0.1,0.1-0.1,0.2         c0.1,0.4,0.3,0.6,0.5,0.9c0.2-0.4,0.5-0.7,0.7-1.1C178.5,14.5,178.1,14.5,177.8,14.5z" />
        <linearGradient id="SVGID_2_" gradientUnits="userSpaceOnUse" x1="203.9212" y1="60.0437" x2="203.9212" y2="96.0437" gradientTransform="matrix(1 0 0 -1 0 103)">
            <stop offset="4.000000e-02" style="stop-color:#AEA50A" />
            <stop offset="0.5" style="stop-color:#F4F2BF" />
            <stop offset="0.96" style="stop-color:#AEA50A" />
        </linearGradient>
        <path class="st2" d="M200.5,6.7c0.2-0.1,0.4-0.1,0.7-0.1c0.2,0,0.3,0,0.5,0c0.7,0.3,1.3,0.6,1.9,1c0.1,0.6,0.3,1.2,0.3,1.8         c0,0.2,0,0.4-0.1,0.7c-0.2,0.2-0.6,0.3-0.9,0.5c0,0.3,0.1,0.6,0.1,0.9c0.5-0.1,1.1-0.2,1.6-0.3c0.1-0.3,0.1-0.7,0.3-0.9         c0,0.2,0.1,0.4,0.1,0.7c0.2,0.1,0.4,0.2,0.6,0.3c0.2,0.1,0.4,0,0.6,0.1c2.2,0,4.4,0,6.6,0c0.2,0,0.4,0.2,0.5,0.4c0-0.5,0-1,0-1.4         c0.1,0,0.2,0,0.3,0c0,0.4,0,0.9,0.1,1.3c0.1,0,0.3,0,0.4,0.1c0,0.2,0,0.3,0,0.5c0.5,0,1,0,1.6,0c0.3,0,0.5-0.1,0.8-0.1         c0.4,0,0.7,0,1.1,0c0,0.2,0,0.3,0.1,0.5c-0.5,0-1.1,0.1-1.6,0c-1-0.1-1.9,0.1-2.9,0c0,0.1-0.1,0.2-0.1,0.4c-0.9,0-1.7,0-2.6,0         c-0.2,0-0.4,0-0.6,0.1c-0.2,0.1-0.3,0.3-0.4,0.4c-0.2,0.2-0.5,0.5-0.6,0.7c-0.1,0.6,0.2,1.2,0.3,1.8c-0.2,0.1-0.4,0.1-0.6,0.2         c-0.2,0.5-0.1,1.1-0.4,1.6c-0.1,0.3-0.4,0.4-0.7,0.6c-0.2,0.2-0.4,0.3-0.7,0.5c-0.2,0.1-0.3,0-0.5,0c-0.4-0.1-0.8-0.1-1.1-0.3         c-0.7-0.3-1.3-0.7-2-1c-0.1,0.2-0.1,0.5-0.2,0.7c0.2,0.2,0.5,0.3,0.7,0.6c0.1,0.3,0.1,0.7,0.1,1c-0.1,0.7-0.1,1.5-0.2,2.2         c-0.1,0.5-0.3,0.9-0.6,1.3c-0.3-0.1-0.5-0.1-0.8-0.2c-0.2,0.4-0.1,0.9,0,1.3c0.2,0.4,0.5,0.6,0.7,0.9c0.9,1.1,1.5,2.5,2,3.8         c0.1,0.2,0.1,0.4,0.2,0.6c0.1,0.3,0.4,0.5,0.5,0.7c0.1,0.4,0.3,0.8,0.2,1.2c0,0.7-0.1,1.5-0.2,2.2c-0.1,0.5-0.2,1-0.1,1.5         c0.1,0.3,0.1,0.6,0.1,0.9c0,0.3-0.1,0.5-0.2,0.8c-0.1,0.5-0.1,1-0.1,1.5c0,0.3,0.1,0.7,0.3,0.9c0.3,0.3,0.5,0.6,0.8,0.9         c0.4,0.5,1.2,0.4,1.6,0.9c0.1,0.2,0,0.5,0,0.8c-1,0.1-2,0.2-3,0c-0.4-0.1-0.7-0.2-1.1-0.2c-0.5,0-1,0.1-1.4-0.1         c0-0.7,0.2-1.4,0.4-2.1c0.1-0.5,0-1,0-1.5c0-0.3-0.1-0.6-0.2-0.8c-0.4-1.1-0.5-2.3-0.5-3.4c0-0.2,0.1-0.5,0.2-0.7         c0.3-0.5,0.3-1.2-0.1-1.7c-0.3,0-0.6,0-0.8,0c-0.1,0-0.3-0.1-0.4-0.2c-0.5-0.8-1.1-1.6-1.6-2.4c-0.2-0.3-0.7-0.1-1-0.5         c-0.2-0.2-0.3-0.5-0.4-0.8c-0.1,0.2-0.1,0.5-0.3,0.7c-0.1,0.2-0.3,0.4-0.4,0.5c-0.2,0.3-0.3,0.5-0.4,0.8c-0.2,0.5-0.4,0.9-0.5,1.4         c-0.1,0.2-0.1,0.5-0.2,0.7c-0.1,0.2-0.3,0.3-0.4,0.5c-0.2,0.2-0.3,0.5-0.5,0.7c-0.1,0.2-0.3,0.3-0.4,0.5c-0.1,0.2-0.2,0.4-0.3,0.7         c0,0.3,0.1,0.6,0,0.9c-0.2,0.7-0.5,1.2-0.8,1.9c-0.1,0.4-0.2,0.7-0.4,1.1c-0.2,0.2-0.4,0.3-0.6,0.6c-0.4,0.7-0.6,1.6-0.5,2.5         c0,0.2,0,0.3,0.1,0.5c0.1,0.3,0.2,0.7,0.1,1.1c-0.5,0.1-1,0.1-1.5,0.1c-0.4,0-0.8,0-1.1-0.2c-0.1-0.3-0.1-0.6-0.1-0.9         c0-0.5,0.2-1,0.3-1.4c0.2-0.6,0.3-1.2,0.5-1.8c0.1-0.4-0.2-0.7-0.2-1.1c0-0.6,0.3-1,0.6-1.5c0.2-0.4,0.2-0.9,0.3-1.3         c0.3-0.7,0.7-1.3,1.1-1.9c0.2-0.3,0.4-0.6,0.5-0.9c0.1-0.4,0-0.7,0-1.1c0-0.8,0.2-1.6,0.3-2.5c0-0.2,0.1-0.5,0-0.7         s-0.2-0.5-0.2-0.8c0-0.2,0-0.4,0-0.6s-0.1-0.4,0-0.7c0.1-0.3,0.3-0.5,0.5-0.6c0-1.1-0.4-2.3-0.2-3.4c0.2-0.2,0.5-0.3,0.8-0.5         c-0.4-0.1-0.8-0.2-1.2-0.3c0-0.4,0-0.9,0.1-1.3c0.1-0.6,0.1-1.3,0.2-2c0-0.1,0-0.3,0.1-0.4s0.3-0.1,0.4-0.1c0.3,0,0.6,0,1-0.1         c-0.1-0.5-0.1-1.1-0.1-1.6c0-0.6,0.1-1.1,0.3-1.7c0.2-0.8,0.7-1.6,1.4-2.1c0.3-0.2,0.7-0.4,1.2-0.4c0.3,0,0.7,0.1,0.9,0.3         c0.1,0,0.1-0.1,0.2-0.1c-0.4-1.1-0.3-2.3,0.4-3.2C199.5,7.2,200,6.9,200.5,6.7z M206.6,13.5c0,0.2-0.1,0.5-0.4,0.6         c0.3,0,0.7,0,1-0.1c0-0.2,0-0.4,0-0.6C207,13.4,206.8,13.5,206.6,13.5z M205.9,14.2c0,0.1-0.1,0.1-0.1,0.2c0.1,0.4,0.3,0.6,0.5,0.9         c0.2-0.4,0.5-0.7,0.7-1.1C206.6,14.2,206.3,14.2,205.9,14.2z" />
        <linearGradient id="SVGID_3_" gradientUnits="userSpaceOnUse" x1="230.9212" y1="60.0437" x2="230.9212" y2="96.0437" gradientTransform="matrix(1 0 0 -1 0 103)">
            <stop offset="4.000000e-02" style="stop-color:#AEA50A" />
            <stop offset="0.5" style="stop-color:#F4F2BF" />
            <stop offset="0.96" style="stop-color:#AEA50A" />
        </linearGradient>
        <path class="st3" d="M227.5,6.8c0.2-0.1,0.4-0.1,0.7-0.1c0.2,0,0.3,0,0.5,0c0.7,0.3,1.3,0.6,1.9,1c0.1,0.6,0.3,1.2,0.3,1.8         c0,0.2,0,0.4-0.1,0.7c-0.2,0.2-0.6,0.3-0.9,0.5c0,0.3,0.1,0.6,0.1,0.9c0.5-0.1,1.1-0.2,1.6-0.3c0.1-0.3,0.1-0.7,0.3-0.9         c0,0.2,0.1,0.4,0.1,0.7c0.2,0.1,0.4,0.2,0.6,0.3c0.2,0.1,0.4,0,0.6,0.1c2.2,0,4.4,0,6.6,0c0.2,0,0.4,0.2,0.5,0.4c0-0.5,0-1,0-1.4         c0.1,0,0.2,0,0.3,0c0,0.4,0,0.9,0.1,1.3c0.1,0,0.3,0,0.4,0.1c0,0.2,0,0.3,0,0.5c0.5,0,1,0,1.6,0c0.3,0,0.5-0.1,0.8-0.1         c0.4,0,0.7,0,1.1,0c0,0.2,0,0.3,0.1,0.5c-0.5,0-1.1,0.1-1.6,0c-1-0.1-1.9,0.1-2.9,0c0,0.1-0.1,0.2-0.1,0.4c-0.9,0-1.7,0-2.6,0         c-0.2,0-0.4,0-0.6,0.1c-0.2,0.1-0.3,0.3-0.4,0.4c-0.2,0.2-0.5,0.5-0.6,0.7c-0.1,0.6,0.2,1.2,0.3,1.8c-0.2,0.1-0.4,0.1-0.6,0.2         c-0.2,0.5-0.1,1.1-0.4,1.6c-0.1,0.3-0.4,0.4-0.7,0.6c-0.2,0.2-0.4,0.3-0.7,0.5c-0.2,0.1-0.3,0-0.5,0c-0.4-0.1-0.8-0.1-1.1-0.3         c-0.7-0.3-1.3-0.7-2-1c-0.1,0.2-0.1,0.5-0.2,0.7c0.2,0.2,0.5,0.3,0.7,0.6c0.1,0.3,0.1,0.7,0.1,1c-0.1,0.7-0.1,1.5-0.2,2.2         c-0.1,0.5-0.3,0.9-0.6,1.3c-0.3-0.1-0.5-0.1-0.8-0.2c-0.2,0.4-0.1,0.9,0,1.3c0.2,0.4,0.5,0.6,0.7,0.9c0.9,1.1,1.5,2.5,2,3.8         c0.1,0.2,0.1,0.4,0.2,0.6c0.1,0.3,0.4,0.5,0.5,0.7c0.1,0.4,0.3,0.8,0.2,1.2c0,0.7-0.1,1.5-0.2,2.2c-0.1,0.5-0.2,1-0.1,1.5         c0.1,0.3,0.1,0.6,0.1,0.9c0,0.3-0.1,0.5-0.2,0.8c-0.1,0.5-0.1,1-0.1,1.5c0,0.3,0.1,0.7,0.3,0.9c0.3,0.3,0.5,0.6,0.8,0.9         c0.4,0.5,1.2,0.4,1.6,0.9c0.1,0.2,0,0.5,0,0.8c-1,0.1-2,0.2-3,0c-0.4-0.1-0.7-0.2-1.1-0.2c-0.5,0-1,0.1-1.4-0.1         c0-0.7,0.2-1.4,0.4-2.1c0.1-0.5,0-1,0-1.5c0-0.3-0.1-0.6-0.2-0.8c-0.4-1.1-0.5-2.3-0.5-3.4c0-0.2,0.1-0.5,0.2-0.7         c0.3-0.5,0.3-1.2-0.1-1.7c-0.3,0-0.6,0-0.8,0c-0.1,0-0.3-0.1-0.4-0.2c-0.5-0.8-1.1-1.6-1.6-2.4c-0.2-0.3-0.7-0.1-1-0.5         c-0.2-0.2-0.3-0.5-0.4-0.8c-0.1,0.2-0.1,0.5-0.3,0.7c-0.1,0.2-0.3,0.4-0.4,0.5c-0.2,0.3-0.3,0.5-0.4,0.8c-0.2,0.5-0.4,0.9-0.5,1.4         c-0.1,0.2-0.1,0.5-0.2,0.7c-0.1,0.2-0.3,0.3-0.4,0.5c-0.2,0.2-0.3,0.5-0.5,0.7c-0.1,0.2-0.3,0.3-0.4,0.5c-0.1,0.2-0.2,0.4-0.3,0.7         c0,0.3,0.1,0.6,0,0.9c-0.2,0.7-0.5,1.2-0.8,1.9c-0.1,0.4-0.2,0.7-0.4,1.1c-0.2,0.2-0.4,0.3-0.6,0.6c-0.4,0.7-0.6,1.6-0.5,2.5         c0,0.2,0,0.3,0.1,0.5c0.1,0.3,0.2,0.7,0.1,1.1c-0.5,0.1-1,0.1-1.5,0.1c-0.4,0-0.8,0-1.1-0.2c-0.1-0.3-0.1-0.6-0.1-0.9         c0-0.5,0.2-1,0.3-1.4c0.2-0.6,0.3-1.2,0.5-1.8c0.1-0.4-0.2-0.7-0.2-1.1c0-0.6,0.3-1,0.6-1.5c0.2-0.4,0.2-0.9,0.3-1.3         c0.3-0.7,0.7-1.3,1.1-1.9c0.2-0.3,0.4-0.6,0.5-0.9c0.1-0.4,0-0.7,0-1.1c0-0.8,0.2-1.6,0.3-2.5c0-0.2,0.1-0.5,0-0.7         s-0.2-0.5-0.2-0.8c0-0.2,0-0.4,0-0.6s-0.1-0.4,0-0.7c0.1-0.3,0.3-0.5,0.5-0.6c0-1.1-0.4-2.3-0.2-3.4c0.2-0.2,0.5-0.3,0.8-0.5         c-0.4-0.1-0.8-0.2-1.2-0.3c0-0.4,0-0.9,0.1-1.3c0.1-0.6,0.1-1.3,0.2-2c0-0.1,0-0.3,0.1-0.4s0.3-0.1,0.4-0.1c0.3,0,0.6,0,1-0.1         c-0.1-0.5-0.1-1.1-0.1-1.6c0-0.6,0.1-1.1,0.3-1.7c0.2-0.8,0.7-1.6,1.4-2.1c0.3-0.2,0.7-0.4,1.2-0.4c0.3,0,0.7,0.1,0.9,0.3         c0.1,0,0.1-0.1,0.2-0.1c-0.4-1.1-0.3-2.3,0.4-3.2C226.5,7.3,227,7,227.5,6.8z M233.6,13.5c0,0.2-0.1,0.5-0.4,0.6c0.3,0,0.7,0,1-0.1         c0-0.2,0-0.4,0-0.6C234,13.5,233.8,13.5,233.6,13.5z M232.9,14.3c0,0.1-0.1,0.1-0.1,0.2c0.1,0.4,0.3,0.6,0.5,0.9         c0.2-0.4,0.5-0.7,0.7-1.1C233.7,14.3,233.3,14.2,232.9,14.3z" />
    </g>
    <g>
        <path d="M19.8,12.1c2.5-3.8,6.1-7.6,10.9-7.9c5.7-0.3,11.4,0,17.1-0.1c-0.5,2.8-0.9,5.5-1.3,8.3c-4.5,0.1-9.1-0.1-13.6,0.1         c-3,0.1-5.6,2.2-7,4.7c-2.4,4.1-3.3,9.1-2.4,13.8c0.4,2,1.8,4.4,4.1,4.4c5,0.2,10.1,0,15.1,0.1c-0.5,2.8-1,5.6-1.4,8.4         c-5.8-0.1-11.7,0.3-17.5-0.1c-4.6-0.6-7.5-5-8.5-9.2C13.8,26.8,15.6,18.7,19.8,12.1z" style="fill:white;" />
        <path d="M48.9,14.9C49.7,9.6,54,4.1,59.8,4.1c6.2-0.1,12.3,0,18.5,0c-0.5,2.7-0.9,5.4-1.4,8.1c-5.4,0.1-10.7-0.3-16.1,0.2         c-3.1,0.3-5.2,4.9-2,6.7c3.6,0.9,7.5-0.2,11.1,0.9c4.2,2.2,4.7,7.8,4.1,12.1c-1,5.8-5.5,12.6-12.2,11.9c-5.8,0-11.5,0-17.3,0         c0.5-2.7,0.9-5.3,1.4-8c5-0.1,10,0.1,15-0.1c3.8,0,6.6-5.6,3.4-8.2c-3.8-1.3-8,0.3-11.7-1.4C48.7,23.9,48.4,18.9,48.9,14.9z" style="fill:white;" />
        <path d="M92.9,13.2c2.5-4.3,6.5-8.7,11.8-9c5.7-0.2,11.3,0,17-0.1c-0.5,2.8-0.9,5.5-1.3,8.3c-5.2,0.2-10.3-0.1-15.5,0.1         c-3.9,0.2-5.9,4.3-6.8,7.6c-1.1,4.6-2.2,10.3,1.2,14.3c2.7,1.7,6.2,0.7,9.2,0.9c0.6-4.5,1.4-9.1,2.2-13.6c2.7,0,5.4,0,8.1,0         c-1.3,7.4-2.4,14.7-3.6,22.1c-5.9-0.1-11.8,0.3-17.6-0.2c-4.3-0.5-7.1-4.5-8.2-8.4C87.4,27.8,89.3,19.8,92.9,13.2z" style="fill:white;" />
        <path d="M129,5.3c4.8-2.3,10.4-0.9,15.6-1.2c4.8-0.5,8.1,4.5,7.7,8.9c-0.6,6.1-1.9,12-2.8,18c-0.5,4.2-2.5,8.4-6.1,10.7         c-4.3,3-9.9,2-14.8,2c-4.8,0.2-9.1-4-8.8-8.8c0.3-6.1,1.9-12.1,2.7-18.2C122.9,12.3,125,7.6,129,5.3z M134.1,12.5         c-1.6,0.5-3.1,1.8-3.2,3.6c-0.9,5.3-1.9,10.6-2.5,16c0.7,3.9,5.4,3.3,8.4,3.1c2.7-0.2,4.5-2.8,4.7-5.3c0.7-5.2,2.1-10.3,2.2-15.6         C141.5,11.2,137.2,12,134.1,12.5z" style="fill:white;" />
        <path d="M78.2,22.3c0.5-2.9,1-5.8,1.4-8.7c2.8,0,5.6,0,8.3,0c-0.5,2.9-1,5.8-1.5,8.7C83.8,22.3,81,22.3,78.2,22.3z" style="fill:white;" />
        <path d="M76.1,35.3c2.8,0,5.6,0,8.4,0c-0.5,2.8-1,5.6-1.4,8.4c-2.8,0.1-5.6,0.1-8.4,0.1C75.2,41,75.6,38.2,76.1,35.3z" style="fill:white;" />
    </g>
    <g>
        <path d="M12.2,47.2c33.5-0.1,67,0,100.5,0c12-0.5,24-0.2,36-0.3c34.6,0,69.1,0,103.7,0c-3,17.3-5.6,34.8-8.6,52.1H3.7v-0.5         C6.8,81.4,9.4,64.3,12.2,47.2z" />
        <path class="st0" d="M16,53.5c-1.4,8.5-3.5,16.8-4.9,25.3c-0.9,4.6,0.6,9.7,4.5,12.4c5.5,3.7,13.5,3.3,18.9-0.5         c5.1-3.6,6.3-10.2,7.5-15.8c1.3-7.1,2.7-14.2,4-21.3c-2.8-0.1-5.7-0.1-8.5-0.1c-1.6,8-3,16-4.6,24c-0.7,2.8-1.4,6.1-4.2,7.5         c-2.6,1.2-6.1,1.3-8.5-0.6c-1.6-1.3-1.1-3.5-0.8-5.2c1.8-8.4,3.4-16.9,5.2-25.4C21.7,53.5,18.9,53.5,16,53.5z" />
        <path class="st0" d="M44.4,92.9c8.7,0.1,17.4,0.3,26.1,0c0.5-2.5,0.9-5,1.3-7.6c-5.8-0.2-11.7-0.1-17.5-0.1         c2.1-10.5,4.1-21.1,5.9-31.7c-2.9,0-5.7,0-8.5,0C49.3,66.6,46.7,79.7,44.4,92.9z" />
        <path class="st0" d="M73.2,61.2c3.3,0,6.7,0,10,0c-2.2,10.4-3.8,20.9-6.1,31.3c2.8,0.6,5.7,0.6,8.6,0.4c2-10.6,4-21.1,6-31.7         c3.3,0,6.7,0,10,0c0.5-2.5,0.9-5.1,1.4-7.6c-9.5-0.3-19.1-0.1-28.6-0.1C73.9,56.1,73.5,58.6,73.2,61.2z" />
        <path class="st0" d="M106,53.5c-2.2,13.1-5.1,26.1-7.3,39.3c2.8,0.1,5.7,0.2,8.5,0.1c2.3-13.1,5-26.2,7.4-39.3         C111.7,53.5,108.8,53.5,106,53.5z" />
        <path class="st0" d="M121,53.6c-2.2,13.1-5.1,26-7.2,39.1c2.5,0.4,5.1,0.3,7.6,0.3c1.6-8.4,2.7-16.9,4.3-25.3         c0.8,8.4,0.6,16.8,1.1,25.3c2.6,0.1,5.1,0.3,7.7,0c4.2-8,6.6-16.8,10.6-25c-1.3,8.3-3.4,16.6-4.7,24.9c2.6,0.1,5.2,0.1,7.8,0.1         c2.1-13.1,4.3-26.2,6.5-39.3c-3.8-0.2-7.7-0.2-11.5-0.2c-3.4,7.7-6.1,15.7-9.9,23.1c-0.3-7.7-0.5-15.4-0.8-23         C128.7,53.5,124.9,53.5,121,53.6z" />
        <path class="st0" d="M171.1,53.6c-6.5,13.2-13.6,26-19.8,39.3c2.8,0.1,5.7,0.2,8.5,0.2c1.5-2.8,2.9-5.7,4.3-8.5c4.2,0,8.4,0,12.7,0         c0.3,2.8,0.7,5.7,1.1,8.5c2.7,0,5.4,0,8.1-0.2c-1.8-13.1-3.8-26.2-5.7-39.3C177.2,53.5,174.1,53.5,171.1,53.6z" />
        <path class="st0" d="M188.3,61.2c3.3,0.1,6.7,0.1,10,0.1c-2.1,10.5-4.2,21-6,31.6c2.8,0.1,5.6,0.2,8.4,0.1c2-10.6,4.1-21.2,6-31.7         c3.3,0,6.7,0,10,0c0.5-2.5,0.9-5.1,1.4-7.7c-9.5-0.2-19,0-28.5-0.1C189.2,56.1,188.7,58.6,188.3,61.2z" />
        <path class="st0" d="M214.2,92.9c9.4,0.1,18.8,0.2,28.2,0c0.5-2.5,0.9-5,1.3-7.6c-6.7-0.2-13.3,0-20-0.1c0.7-3,1.3-6,1.9-9         c6,0,12,0,18,0c0.5-2.5,0.9-5,1.4-7.6c-6-0.3-12-0.1-18-0.2c0.5-2.4,1.1-4.8,1.6-7.2c6.1,0,12.3,0,18.4,0c0.5-2.6,0.9-5.1,1.3-7.7         c-8.9-0.1-17.9,0-26.8-0.1C219.1,66.7,216.3,79.7,214.2,92.9z" />
        <path d="M167.8,76.7c2.2-4,3.9-8.2,6.3-12.1c0.5,4,1,8,1.6,12C173,76.7,170.4,76.7,167.8,76.7z" />
    </g>
</svg>
